<mxfile host="app.diagrams.net" agent="Mozilla/5.0 (Macintosh; Intel Mac OS X 10_15_7) AppleWebKit/605.1.15 (KHTML, like Gecko) Version/18.5 Safari/605.1.15" version="27.1.3">
  <diagram name="Page-1" id="AVSsDRDsZYg_Qi1KtN1w">
    <mxGraphModel dx="1431" dy="1982" grid="1" gridSize="10" guides="1" tooltips="1" connect="1" arrows="1" fold="1" page="1" pageScale="1" pageWidth="827" pageHeight="1169" math="0" shadow="0">
      <root>
        <mxCell id="0" />
        <mxCell id="1" parent="0" />
        <mxCell id="vs2_OkdNOsUBI768dGi_-5" value="" style="edgeStyle=orthogonalEdgeStyle;rounded=0;orthogonalLoop=1;jettySize=auto;html=1;" parent="1" source="vs2_OkdNOsUBI768dGi_-3" target="vs2_OkdNOsUBI768dGi_-4" edge="1">
          <mxGeometry relative="1" as="geometry" />
        </mxCell>
        <mxCell id="vs2_OkdNOsUBI768dGi_-3" value="Splash Screen" style="rounded=1;whiteSpace=wrap;html=1;strokeWidth=5;" parent="1" vertex="1">
          <mxGeometry x="200" y="180" width="100" height="200" as="geometry" />
        </mxCell>
        <mxCell id="vs2_OkdNOsUBI768dGi_-7" value="" style="edgeStyle=orthogonalEdgeStyle;rounded=0;orthogonalLoop=1;jettySize=auto;html=1;entryX=0.5;entryY=1;entryDx=0;entryDy=0;" parent="1" source="vs2_OkdNOsUBI768dGi_-4" target="vs2_OkdNOsUBI768dGi_-6" edge="1">
          <mxGeometry relative="1" as="geometry" />
        </mxCell>
        <mxCell id="vs2_OkdNOsUBI768dGi_-16" value="&amp;nbsp;TRUE&amp;nbsp;" style="edgeLabel;html=1;align=center;verticalAlign=middle;resizable=0;points=[];" parent="vs2_OkdNOsUBI768dGi_-7" vertex="1" connectable="0">
          <mxGeometry x="-0.3614" y="1" relative="1" as="geometry">
            <mxPoint as="offset" />
          </mxGeometry>
        </mxCell>
        <mxCell id="vs2_OkdNOsUBI768dGi_-15" value="" style="edgeStyle=orthogonalEdgeStyle;rounded=0;orthogonalLoop=1;jettySize=auto;html=1;" parent="1" source="vs2_OkdNOsUBI768dGi_-4" target="vs2_OkdNOsUBI768dGi_-14" edge="1">
          <mxGeometry relative="1" as="geometry" />
        </mxCell>
        <mxCell id="vs2_OkdNOsUBI768dGi_-17" value="&amp;nbsp;FALSE&amp;nbsp;" style="edgeLabel;html=1;align=center;verticalAlign=middle;resizable=0;points=[];" parent="vs2_OkdNOsUBI768dGi_-15" vertex="1" connectable="0">
          <mxGeometry x="-0.4556" relative="1" as="geometry">
            <mxPoint as="offset" />
          </mxGeometry>
        </mxCell>
        <mxCell id="vs2_OkdNOsUBI768dGi_-4" value="First time&lt;div&gt;launch ?&lt;/div&gt;" style="rhombus;whiteSpace=wrap;html=1;rounded=1;strokeWidth=5;" parent="1" vertex="1">
          <mxGeometry x="350" y="230" width="100" height="100" as="geometry" />
        </mxCell>
        <mxCell id="vs2_OkdNOsUBI768dGi_-26" value="&lt;div&gt;&lt;br&gt;&lt;/div&gt;A 1&lt;div&gt;&lt;font style=&quot;font-size: 8px;&quot;&gt;[ Root Navigation Stack ]&lt;/font&gt;&lt;/div&gt;" style="whiteSpace=wrap;html=1;rounded=1;strokeWidth=5;arcSize=15;verticalAlign=top;" parent="1" vertex="1">
          <mxGeometry x="780" y="400" width="100" height="200" as="geometry" />
        </mxCell>
        <mxCell id="vs2_OkdNOsUBI768dGi_-42" value="" style="group" parent="1" vertex="1" connectable="0">
          <mxGeometry x="549.9999999999999" y="180" width="100.0100000000001" height="200" as="geometry" />
        </mxCell>
        <mxCell id="vs2_OkdNOsUBI768dGi_-14" value="Dashboard&lt;div&gt;&lt;font style=&quot;font-size: 8px;&quot;&gt;&lt;font&gt;[&lt;/font&gt;&amp;nbsp;&lt;font&gt;Tabbar&amp;nbsp;&lt;/font&gt;]&lt;/font&gt;&lt;/div&gt;" style="whiteSpace=wrap;html=1;rounded=1;strokeWidth=5;arcSize=15;" parent="vs2_OkdNOsUBI768dGi_-42" vertex="1">
          <mxGeometry x="1.1368683772161603e-13" width="100" height="200" as="geometry" />
        </mxCell>
        <mxCell id="vs2_OkdNOsUBI768dGi_-36" value="&lt;span style=&quot;color: light-dark(rgb(0, 0, 0), rgb(255, 255, 255));&quot;&gt;A&lt;/span&gt;" style="verticalLabelPosition=middle;verticalAlign=middle;html=1;shape=mxgraph.basic.corner_round_rect;dx=6;whiteSpace=wrap;rotation=0;strokeWidth=5;direction=west;flipH=1;labelPosition=center;align=center;fontSize=8;fillColor=#666666;" parent="vs2_OkdNOsUBI768dGi_-42" vertex="1">
          <mxGeometry y="176" width="32" height="24" as="geometry" />
        </mxCell>
        <mxCell id="vs2_OkdNOsUBI768dGi_-37" value="&lt;span style=&quot;color: light-dark(rgb(0, 0, 0), rgb(255, 255, 255));&quot;&gt;More&lt;/span&gt;" style="verticalLabelPosition=middle;verticalAlign=middle;html=1;shape=mxgraph.basic.corner_round_rect;dx=15;whiteSpace=wrap;rotation=0;strokeWidth=5;labelPosition=center;align=center;direction=west;fontSize=8;fillColor=#666666;fontColor=light-dark(#000000,#000000);" parent="vs2_OkdNOsUBI768dGi_-42" vertex="1">
          <mxGeometry x="68.0100000000001" y="176" width="32" height="24" as="geometry" />
        </mxCell>
        <mxCell id="vs2_OkdNOsUBI768dGi_-40" value="&lt;span style=&quot;color: light-dark(rgb(0, 0, 0), rgb(255, 255, 255));&quot;&gt;B&lt;/span&gt;" style="text;html=1;align=center;verticalAlign=middle;whiteSpace=wrap;rounded=0;fontSize=8;fillColor=#666666;gradientColor=none;strokeColor=none;fontColor=light-dark(#000000,#000000);" parent="vs2_OkdNOsUBI768dGi_-42" vertex="1">
          <mxGeometry x="34.500000000000114" y="178" width="30.9" height="20" as="geometry" />
        </mxCell>
        <mxCell id="vs2_OkdNOsUBI768dGi_-41" value="" style="endArrow=none;html=1;rounded=0;entryX=1.09;entryY=-0.039;entryDx=0;entryDy=0;entryPerimeter=0;strokeWidth=5;exitX=1.054;exitY=0.991;exitDx=0;exitDy=0;exitPerimeter=0;" parent="vs2_OkdNOsUBI768dGi_-42" edge="1">
          <mxGeometry width="50" height="50" relative="1" as="geometry">
            <mxPoint x="34.09800000000007" y="175.99599999999998" as="sourcePoint" />
            <mxPoint x="65.90000000000009" y="176" as="targetPoint" />
          </mxGeometry>
        </mxCell>
        <mxCell id="vs2_OkdNOsUBI768dGi_-44" value="" style="group" parent="1" vertex="1" connectable="0">
          <mxGeometry x="350" y="-50" width="116.5" height="200" as="geometry" />
        </mxCell>
        <mxCell id="vs2_OkdNOsUBI768dGi_-6" value="Onboarding" style="whiteSpace=wrap;html=1;rounded=1;strokeWidth=5;" parent="vs2_OkdNOsUBI768dGi_-44" vertex="1">
          <mxGeometry width="100" height="200" as="geometry" />
        </mxCell>
        <mxCell id="vs2_OkdNOsUBI768dGi_-55" value="&lt;span style=&quot;caret-color: rgb(255, 255, 255); color: rgb(255, 255, 255); font-size: 8px;&quot;&gt;Continue / Skip CTA&lt;/span&gt;" style="rounded=1;html=1;shadow=0;dashed=0;whiteSpace=wrap;fontSize=10;fillColor=#666666;align=center;strokeColor=#4D4D4D;fontColor=#ffffff;" parent="vs2_OkdNOsUBI768dGi_-44" vertex="1">
          <mxGeometry x="11.75" y="170" width="76.5" height="16.88" as="geometry" />
        </mxCell>
        <mxCell id="vs2_OkdNOsUBI768dGi_-45" style="edgeStyle=orthogonalEdgeStyle;rounded=0;orthogonalLoop=1;jettySize=auto;html=1;entryX=0.451;entryY=-0.003;entryDx=0;entryDy=0;entryPerimeter=0;exitX=1;exitY=0.5;exitDx=0;exitDy=0;" parent="1" source="vs2_OkdNOsUBI768dGi_-55" target="vs2_OkdNOsUBI768dGi_-14" edge="1">
          <mxGeometry relative="1" as="geometry" />
        </mxCell>
        <mxCell id="vs2_OkdNOsUBI768dGi_-46" value="&lt;div&gt;&lt;br&gt;&lt;/div&gt;B 1&lt;br&gt;&lt;div&gt;&lt;font style=&quot;font-size: 8px;&quot;&gt;[ Root&amp;nbsp;&lt;/font&gt;&lt;span style=&quot;font-size: 8px;&quot;&gt;Navigation Stack&amp;nbsp;&lt;/span&gt;&lt;span style=&quot;font-size: 8px;&quot;&gt;]&lt;/span&gt;&lt;/div&gt;" style="whiteSpace=wrap;html=1;rounded=1;strokeWidth=5;arcSize=15;verticalAlign=top;" parent="1" vertex="1">
          <mxGeometry x="780" y="180" width="100" height="200" as="geometry" />
        </mxCell>
        <mxCell id="vs2_OkdNOsUBI768dGi_-67" value="" style="edgeStyle=orthogonalEdgeStyle;rounded=0;orthogonalLoop=1;jettySize=auto;html=1;exitX=1;exitY=0.5;exitDx=0;exitDy=0;" parent="1" source="vs2_OkdNOsUBI768dGi_-59" target="vs2_OkdNOsUBI768dGi_-66" edge="1">
          <mxGeometry relative="1" as="geometry" />
        </mxCell>
        <mxCell id="vs2_OkdNOsUBI768dGi_-74" value="&amp;nbsp;Push&amp;nbsp;" style="edgeLabel;html=1;align=center;verticalAlign=middle;resizable=0;points=[];" parent="vs2_OkdNOsUBI768dGi_-67" vertex="1" connectable="0">
          <mxGeometry x="0.2718" y="1" relative="1" as="geometry">
            <mxPoint as="offset" />
          </mxGeometry>
        </mxCell>
        <mxCell id="vs2_OkdNOsUBI768dGi_-47" value="&lt;div&gt;&lt;br&gt;&lt;/div&gt;More&lt;div&gt;&lt;font style=&quot;font-size: 8px;&quot;&gt;[ Root&lt;/font&gt;&amp;nbsp;&lt;span style=&quot;font-size: 8px;&quot;&gt;Navigation Stack ]&lt;/span&gt;&lt;/div&gt;" style="whiteSpace=wrap;html=1;rounded=1;strokeWidth=5;arcSize=15;verticalAlign=top;" parent="1" vertex="1">
          <mxGeometry x="780" y="-40" width="100" height="200" as="geometry" />
        </mxCell>
        <mxCell id="vs2_OkdNOsUBI768dGi_-48" style="edgeStyle=orthogonalEdgeStyle;rounded=1;orthogonalLoop=1;jettySize=auto;html=1;entryX=0;entryY=0.5;entryDx=0;entryDy=0;exitX=0.5;exitY=0;exitDx=0;exitDy=0;exitPerimeter=0;curved=0;strokeColor=light-dark(#000000,#E6E6E6);" parent="1" source="vs2_OkdNOsUBI768dGi_-36" target="vs2_OkdNOsUBI768dGi_-26" edge="1">
          <mxGeometry relative="1" as="geometry">
            <Array as="points">
              <mxPoint x="566" y="500" />
            </Array>
          </mxGeometry>
        </mxCell>
        <mxCell id="vs2_OkdNOsUBI768dGi_-50" style="edgeStyle=orthogonalEdgeStyle;rounded=1;orthogonalLoop=1;jettySize=auto;html=1;entryX=0;entryY=0.5;entryDx=0;entryDy=0;exitX=0.5;exitY=1;exitDx=0;exitDy=0;curved=0;" parent="1" source="vs2_OkdNOsUBI768dGi_-40" target="vs2_OkdNOsUBI768dGi_-46" edge="1">
          <mxGeometry relative="1" as="geometry">
            <Array as="points">
              <mxPoint x="600" y="420" />
              <mxPoint x="720" y="420" />
              <mxPoint x="720" y="280" />
            </Array>
          </mxGeometry>
        </mxCell>
        <mxCell id="vs2_OkdNOsUBI768dGi_-51" style="edgeStyle=orthogonalEdgeStyle;rounded=1;orthogonalLoop=1;jettySize=auto;html=1;entryX=0;entryY=0.5;entryDx=0;entryDy=0;curved=0;" parent="1" source="vs2_OkdNOsUBI768dGi_-37" target="vs2_OkdNOsUBI768dGi_-47" edge="1">
          <mxGeometry relative="1" as="geometry">
            <Array as="points">
              <mxPoint x="680" y="368" />
              <mxPoint x="680" y="60" />
            </Array>
          </mxGeometry>
        </mxCell>
        <mxCell id="vs2_OkdNOsUBI768dGi_-65" style="edgeStyle=orthogonalEdgeStyle;rounded=0;orthogonalLoop=1;jettySize=auto;html=1;endArrow=none;startFill=0;strokeColor=#FF3333;" parent="1" edge="1">
          <mxGeometry relative="1" as="geometry">
            <mxPoint x="709" y="90" as="targetPoint" />
            <mxPoint x="789" y="478.45783132530096" as="sourcePoint" />
          </mxGeometry>
        </mxCell>
        <mxCell id="vs2_OkdNOsUBI768dGi_-54" value="Login" style="rounded=1;html=1;shadow=0;dashed=0;whiteSpace=wrap;fontSize=10;fillColor=#666666;align=center;strokeColor=#4D4D4D;fontColor=#ffffff;" parent="1" vertex="1">
          <mxGeometry x="790" y="470" width="80" height="16.88" as="geometry" />
        </mxCell>
        <mxCell id="vs2_OkdNOsUBI768dGi_-64" style="edgeStyle=orthogonalEdgeStyle;rounded=0;orthogonalLoop=1;jettySize=auto;html=1;endArrow=none;startFill=0;strokeColor=#FF3333;exitX=0;exitY=0.5;exitDx=0;exitDy=0;" parent="1" edge="1" source="vs2_OkdNOsUBI768dGi_-57">
          <mxGeometry relative="1" as="geometry">
            <mxPoint x="709" y="-70" as="targetPoint" />
            <mxPoint x="788" y="248.45000000000005" as="sourcePoint" />
          </mxGeometry>
        </mxCell>
        <mxCell id="vs2_OkdNOsUBI768dGi_-57" value="Login" style="rounded=1;html=1;shadow=0;dashed=0;whiteSpace=wrap;fontSize=10;fillColor=#666666;align=center;strokeColor=#4D4D4D;fontColor=#ffffff;" parent="1" vertex="1">
          <mxGeometry x="790" y="240" width="80" height="16.88" as="geometry" />
        </mxCell>
        <mxCell id="vs2_OkdNOsUBI768dGi_-59" value="C 1" style="rounded=1;html=1;shadow=0;dashed=0;whiteSpace=wrap;fontSize=10;fillColor=#666666;align=center;strokeColor=#4D4D4D;fontColor=#ffffff;" parent="1" vertex="1">
          <mxGeometry x="790" y="30" width="80" height="16.88" as="geometry" />
        </mxCell>
        <mxCell id="vs2_OkdNOsUBI768dGi_-66" value="&lt;div&gt;C 1&lt;/div&gt;" style="whiteSpace=wrap;html=1;rounded=1;strokeWidth=5;arcSize=15;verticalAlign=top;" parent="1" vertex="1">
          <mxGeometry x="960" y="-40" width="100" height="200" as="geometry" />
        </mxCell>
        <mxCell id="vs2_OkdNOsUBI768dGi_-69" style="edgeStyle=orthogonalEdgeStyle;rounded=0;orthogonalLoop=1;jettySize=auto;html=1;entryX=1;entryY=0.75;entryDx=0;entryDy=0;exitX=1;exitY=0.5;exitDx=0;exitDy=0;" parent="1" source="vs2_OkdNOsUBI768dGi_-68" target="vs2_OkdNOsUBI768dGi_-46" edge="1">
          <mxGeometry relative="1" as="geometry">
            <Array as="points">
              <mxPoint x="870" y="520" />
              <mxPoint x="920" y="520" />
              <mxPoint x="920" y="330" />
            </Array>
          </mxGeometry>
        </mxCell>
        <mxCell id="vs2_OkdNOsUBI768dGi_-70" value="Switch to Tab B" style="edgeLabel;html=1;align=center;verticalAlign=middle;resizable=0;points=[];fontSize=8;" parent="vs2_OkdNOsUBI768dGi_-69" vertex="1" connectable="0">
          <mxGeometry x="-0.0055" y="-1" relative="1" as="geometry">
            <mxPoint y="-52" as="offset" />
          </mxGeometry>
        </mxCell>
        <mxCell id="vs2_OkdNOsUBI768dGi_-68" value="B 1" style="rounded=1;html=1;shadow=0;dashed=0;whiteSpace=wrap;fontSize=10;fillColor=#666666;align=center;strokeColor=#4D4D4D;fontColor=#ffffff;" parent="1" vertex="1">
          <mxGeometry x="790" y="510" width="80" height="16.88" as="geometry" />
        </mxCell>
        <mxCell id="vs2_OkdNOsUBI768dGi_-71" value="A 2" style="rounded=1;html=1;shadow=0;dashed=0;whiteSpace=wrap;fontSize=10;fillColor=#666666;align=center;strokeColor=#4D4D4D;fontColor=#ffffff;" parent="1" vertex="1">
          <mxGeometry x="790" y="550" width="80" height="16.88" as="geometry" />
        </mxCell>
        <mxCell id="vs2_OkdNOsUBI768dGi_-75" value="&lt;div&gt;&lt;br&gt;&lt;/div&gt;A 2" style="whiteSpace=wrap;html=1;rounded=1;strokeWidth=5;arcSize=15;verticalAlign=top;" parent="1" vertex="1">
          <mxGeometry x="960" y="400" width="100" height="200" as="geometry" />
        </mxCell>
        <mxCell id="vs2_OkdNOsUBI768dGi_-78" value="C1" style="rounded=1;html=1;shadow=0;dashed=0;whiteSpace=wrap;fontSize=10;fillColor=#666666;align=center;strokeColor=#4D4D4D;fontColor=#ffffff;" parent="1" vertex="1">
          <mxGeometry x="970" y="493.12" width="80" height="16.88" as="geometry" />
        </mxCell>
        <mxCell id="vs2_OkdNOsUBI768dGi_-76" value="" style="edgeStyle=orthogonalEdgeStyle;rounded=0;orthogonalLoop=1;jettySize=auto;html=1;exitX=1;exitY=0.5;exitDx=0;exitDy=0;" parent="1" source="vs2_OkdNOsUBI768dGi_-71" target="vs2_OkdNOsUBI768dGi_-75" edge="1">
          <mxGeometry relative="1" as="geometry">
            <Array as="points">
              <mxPoint x="940" y="558" />
              <mxPoint x="940" y="500" />
            </Array>
          </mxGeometry>
        </mxCell>
        <mxCell id="vs2_OkdNOsUBI768dGi_-77" value="&amp;nbsp;Push&amp;nbsp;" style="edgeLabel;html=1;align=center;verticalAlign=middle;resizable=0;points=[];fontSize=8;" parent="vs2_OkdNOsUBI768dGi_-76" vertex="1" connectable="0">
          <mxGeometry x="-0.3819" y="-1" relative="1" as="geometry">
            <mxPoint y="-1" as="offset" />
          </mxGeometry>
        </mxCell>
        <mxCell id="vs2_OkdNOsUBI768dGi_-79" style="edgeStyle=orthogonalEdgeStyle;rounded=0;orthogonalLoop=1;jettySize=auto;html=1;entryX=0.558;entryY=1.006;entryDx=0;entryDy=0;entryPerimeter=0;" parent="1" source="vs2_OkdNOsUBI768dGi_-78" target="vs2_OkdNOsUBI768dGi_-66" edge="1">
          <mxGeometry relative="1" as="geometry">
            <Array as="points">
              <mxPoint x="1080" y="502" />
              <mxPoint x="1080" y="340" />
              <mxPoint x="1016" y="340" />
            </Array>
          </mxGeometry>
        </mxCell>
        <mxCell id="vs2_OkdNOsUBI768dGi_-80" value="&amp;nbsp;Push&amp;nbsp;" style="edgeLabel;html=1;align=center;verticalAlign=middle;resizable=0;points=[];" parent="vs2_OkdNOsUBI768dGi_-79" vertex="1" connectable="0">
          <mxGeometry x="0.7452" y="2" relative="1" as="geometry">
            <mxPoint as="offset" />
          </mxGeometry>
        </mxCell>
        <mxCell id="vs2_OkdNOsUBI768dGi_-83" style="edgeStyle=orthogonalEdgeStyle;rounded=0;orthogonalLoop=1;jettySize=auto;html=1;entryX=0.5;entryY=1;entryDx=0;entryDy=0;fontColor=light-dark(default, #f5ec00);strokeColor=light-dark(#000000,#006666);" parent="1" source="vs2_OkdNOsUBI768dGi_-82" target="vs2_OkdNOsUBI768dGi_-26" edge="1">
          <mxGeometry relative="1" as="geometry">
            <Array as="points">
              <mxPoint x="1120" y="62" />
              <mxPoint x="1120" y="640" />
              <mxPoint x="830" y="640" />
            </Array>
          </mxGeometry>
        </mxCell>
        <mxCell id="vs2_OkdNOsUBI768dGi_-86" value="Back to A1" style="edgeLabel;html=1;align=center;verticalAlign=middle;resizable=0;points=[];" parent="vs2_OkdNOsUBI768dGi_-83" vertex="1" connectable="0">
          <mxGeometry x="-0.4471" y="-2" relative="1" as="geometry">
            <mxPoint as="offset" />
          </mxGeometry>
        </mxCell>
        <mxCell id="vs2_OkdNOsUBI768dGi_-82" value="Back to Root" style="rounded=1;html=1;shadow=0;dashed=0;whiteSpace=wrap;fontSize=10;fillColor=#666666;align=center;strokeColor=#4D4D4D;fontColor=#ffffff;" parent="1" vertex="1">
          <mxGeometry x="970" y="53.120000000000005" width="80" height="16.88" as="geometry" />
        </mxCell>
        <mxCell id="vs2_OkdNOsUBI768dGi_-84" style="edgeStyle=orthogonalEdgeStyle;rounded=0;orthogonalLoop=1;jettySize=auto;html=1;entryX=0.5;entryY=0;entryDx=0;entryDy=0;exitX=1;exitY=0.5;exitDx=0;exitDy=0;strokeColor=light-dark(#000000,#006666);" parent="1" source="vs2_OkdNOsUBI768dGi_-82" edge="1">
          <mxGeometry relative="1" as="geometry">
            <mxPoint x="1080" y="60" as="sourcePoint" />
            <mxPoint x="830" y="-38" as="targetPoint" />
            <Array as="points">
              <mxPoint x="1090" y="62" />
              <mxPoint x="1120" y="62" />
              <mxPoint x="1120" y="-58" />
              <mxPoint x="830" y="-58" />
            </Array>
          </mxGeometry>
        </mxCell>
        <mxCell id="vs2_OkdNOsUBI768dGi_-85" value="&amp;nbsp;Back to More&amp;nbsp;" style="edgeLabel;html=1;align=center;verticalAlign=middle;resizable=0;points=[];" parent="vs2_OkdNOsUBI768dGi_-84" vertex="1" connectable="0">
          <mxGeometry x="0.204" y="2" relative="1" as="geometry">
            <mxPoint as="offset" />
          </mxGeometry>
        </mxCell>
        <mxCell id="vs2_OkdNOsUBI768dGi_-87" value="&lt;div&gt;&lt;br&gt;&lt;/div&gt;&lt;b&gt;UserActivity, Notifications and Deeplinks&lt;/b&gt;" style="shape=process;whiteSpace=wrap;html=1;backgroundOutline=1;verticalAlign=top;" parent="1" vertex="1">
          <mxGeometry x="220" y="514" width="230" height="160" as="geometry" />
        </mxCell>
        <mxCell id="vs2_OkdNOsUBI768dGi_-91" style="edgeStyle=orthogonalEdgeStyle;rounded=0;orthogonalLoop=1;jettySize=auto;html=1;entryX=0.5;entryY=1;entryDx=0;entryDy=0;" parent="1" source="vs2_OkdNOsUBI768dGi_-88" target="vs2_OkdNOsUBI768dGi_-75" edge="1">
          <mxGeometry relative="1" as="geometry">
            <Array as="points">
              <mxPoint x="1010" y="620" />
            </Array>
          </mxGeometry>
        </mxCell>
        <mxCell id="vs2_OkdNOsUBI768dGi_-92" value="&lt;div style=&quot;text-align: left;&quot;&gt;&amp;nbsp; &amp;nbsp;&lt;b&gt;Consider:&lt;/b&gt;&lt;/div&gt;&lt;div style=&quot;text-align: left;&quot;&gt;&amp;nbsp; 1. App terminated&lt;/div&gt;&lt;div style=&quot;text-align: left;&quot;&gt;&amp;nbsp; 2. App in background&lt;/div&gt;&lt;div style=&quot;text-align: left;&quot;&gt;&amp;nbsp; 3. App active and in c1 screen&lt;/div&gt;&lt;div style=&quot;text-align: left;&quot;&gt;&amp;nbsp; 4. App active and in A2 screen&amp;nbsp;&lt;br&gt;&lt;/div&gt;" style="edgeLabel;html=1;align=center;verticalAlign=middle;resizable=0;points=[];labelBorderColor=default;" parent="vs2_OkdNOsUBI768dGi_-91" vertex="1" connectable="0">
          <mxGeometry x="-0.231" y="-2" relative="1" as="geometry">
            <mxPoint y="-5" as="offset" />
          </mxGeometry>
        </mxCell>
        <mxCell id="vs2_OkdNOsUBI768dGi_-88" value="Go to A2" style="verticalLabelPosition=middle;verticalAlign=middle;html=1;shape=mxgraph.basic.layered_rect;dx=10;outlineConnect=0;whiteSpace=wrap;labelPosition=center;align=center;" parent="1" vertex="1">
          <mxGeometry x="285" y="585" width="100" height="60" as="geometry" />
        </mxCell>
        <mxCell id="vs2_OkdNOsUBI768dGi_-58" value="Login" style="rounded=1;html=1;shadow=0;dashed=0;whiteSpace=wrap;fontSize=10;fillColor=#666666;align=center;strokeColor=#4D4D4D;fontColor=#ffffff;" parent="1" vertex="1">
          <mxGeometry x="970" y="13.119999999999997" width="80" height="16.88" as="geometry" />
        </mxCell>
        <mxCell id="vs2_OkdNOsUBI768dGi_-63" style="edgeStyle=orthogonalEdgeStyle;rounded=0;orthogonalLoop=1;jettySize=auto;html=1;entryX=0.5;entryY=0;entryDx=0;entryDy=0;strokeColor=#FF3333;exitX=0;exitY=0.5;exitDx=0;exitDy=0;" parent="1" source="vs2_OkdNOsUBI768dGi_-58" edge="1" target="vs2_OkdNOsUBI768dGi_-6">
          <mxGeometry relative="1" as="geometry">
            <mxPoint x="789.9999999999999" y="89.45762711864381" as="sourcePoint" />
            <mxPoint x="450" y="51" as="targetPoint" />
            <Array as="points">
              <mxPoint x="930" y="22" />
              <mxPoint x="930" y="-70" />
              <mxPoint x="400" y="-70" />
            </Array>
          </mxGeometry>
        </mxCell>
        <mxCell id="vs2_OkdNOsUBI768dGi_-81" value="&amp;nbsp;Present the screen&amp;nbsp;" style="edgeLabel;html=1;align=center;verticalAlign=middle;resizable=0;points=[];" parent="vs2_OkdNOsUBI768dGi_-63" vertex="1" connectable="0">
          <mxGeometry x="0.1149" y="-3" relative="1" as="geometry">
            <mxPoint x="-100" y="1" as="offset" />
          </mxGeometry>
        </mxCell>
      </root>
    </mxGraphModel>
  </diagram>
</mxfile>
